<svg width="157" height="28" viewBox="0 0 157 28" fill="none" xmlns="http://www.w3.org/2000/svg">
<g clip-path="url(#clip0_844_8172)">
<path d="M45.7897 8.27707C46.9577 8.27707 47.9045 7.33022 47.9045 6.16221C47.9045 4.99421 46.9577 4.04736 45.7897 4.04736C44.6217 4.04736 43.6748 4.99421 43.6748 6.16221C43.6748 7.33022 44.6217 8.27707 45.7897 8.27707Z" fill="white"/>
<path d="M16.7881 12.8277V21.6792H0V11.3663L7.40198 4L16.7881 12.8158V12.8277Z" fill="#91A7F4"/>
<path d="M14.6496 4L22.0516 11.3426V21.6673H5.27539V12.8277L14.6496 4Z" fill="#98DCFF"/>
<path d="M11.026 7.40967L5.26367 12.8275V21.679H16.8003V12.8275L11.026 7.40967Z" fill="#3B82F6"/>
<path d="M42.3328 10.8672C42.3328 7.58799 40.0398 5.29492 36.7605 5.29492H29.6318V21.6791H33.5526V16.4395H35.1922L38.1744 21.6316L38.1982 21.6791H42.3803L39.0774 15.9286C39.9566 15.5246 42.3209 14.1226 42.3209 10.8672H42.3328ZM38.816 10.8672C38.816 12.1979 37.7348 13.2672 36.416 13.2672H33.5407V8.4672H36.416C37.7467 8.4672 38.816 9.54839 38.816 10.8672Z" fill="#2B2F36"/>
<path d="M45.8023 8.26535C46.9704 8.26535 47.9172 7.3185 47.9172 6.1505C47.9172 4.9825 46.9704 4.03564 45.8023 4.03564C44.6343 4.03564 43.6875 4.9825 43.6875 6.1505C43.6875 7.3185 44.6343 8.26535 45.8023 8.26535Z" fill="#2B2F36"/>
<path d="M84.3324 10.7011C83.6077 9.89322 82.5503 9.45361 81.3265 9.45361C77.9285 9.45361 75.1602 12.2813 75.1602 15.7506C75.1602 19.2199 77.9047 22.0358 81.279 22.0358C82.5978 22.0358 83.7978 21.513 84.3443 20.7289V21.7982C84.3443 23.6041 83.3225 24.5902 81.4453 24.5902C80.0077 24.5902 79.0572 23.9843 78.1661 22.4873L78.1186 22.3922L75.4928 24.4001L75.5285 24.4714C76.7404 26.6576 78.9503 27.9645 81.4453 27.9645C84.974 27.9645 87.8493 25.1962 87.8493 21.7863V9.82193H84.3443V10.7011H84.3324ZM84.2136 15.7506C84.2136 17.3308 82.9542 18.6021 81.3978 18.6021C79.8413 18.6021 78.5819 17.319 78.5819 15.7506C78.5819 14.1823 79.8413 12.8873 81.3978 12.8873C82.9542 12.8873 84.2136 14.1704 84.2136 15.7506Z" fill="#2B2F36"/>
<path d="M69.1245 9.46535C68.0077 9.46535 66.7958 10.0238 66.2374 10.7485V4L62.4473 5.31881V21.6792H66.2374V14.9307C66.2374 13.8614 67.1997 12.9584 68.3285 12.9584C69.8492 12.9584 70.0869 14.3485 70.0869 15.1683V21.6792H73.9007V14.5505C73.9007 11.2119 71.5007 9.46535 69.1245 9.46535Z" fill="#2B2F36"/>
<path d="M43.9014 21.6793H47.6915V9.23975L43.9014 10.5229V21.6793Z" fill="#2B2F36"/>
<path d="M95.2755 9.46533C91.8062 9.46533 88.9785 12.2931 88.9785 15.7624C88.9785 19.2317 91.8062 22.0594 95.2755 22.0594C98.7449 22.0594 101.573 19.2317 101.573 15.7624C101.573 12.2931 98.7449 9.46533 95.2755 9.46533ZM98.0795 15.7624C98.0795 17.3069 96.8201 18.5663 95.2755 18.5663C93.731 18.5663 92.4716 17.3069 92.4716 15.7624C92.4716 14.2178 93.731 12.9584 95.2755 12.9584C96.8201 12.9584 98.0795 14.2178 98.0795 15.7624Z" fill="#2B2F36"/>
<path d="M55.3428 12.9465C56.3408 12.9465 57.1725 13.4574 57.5645 14.3129L57.5883 14.3723H61.2952L61.2715 14.2653C60.6893 11.4376 58.2537 9.46533 55.3428 9.46533C51.8735 9.46533 49.0576 12.2812 49.0576 15.7505C49.0576 19.2198 51.8735 22.0475 55.3428 22.0475C58.2418 22.0475 60.6774 20.0752 61.2715 17.2594L61.2952 17.1525H57.5883L57.5645 17.2C57.1487 18.0673 56.3408 18.5663 55.3428 18.5663C53.7982 18.5663 52.5388 17.3069 52.5388 15.7624C52.5388 14.2178 53.7982 12.9584 55.3428 12.9584V12.9465Z" fill="#2B2F36"/>
<path d="M137.477 5.29492H133.557L127.984 21.6672H131.905L132.927 18.6613H138.309L139.331 21.6672H143.157L137.584 5.29492H137.489H137.477ZM133.949 15.6553L135.612 10.7721L137.275 15.6553H133.949Z" fill="#2B2F36"/>
<path d="M151.248 11.7228C150.499 11.4614 149.822 11.2357 149.323 10.9386C148.836 10.6416 148.539 10.1782 148.539 9.66735C148.539 8.88319 149.192 8.32478 150.202 8.32478C151.878 8.32478 152.804 9.58418 153.113 9.96438L155.977 7.83765C155.442 6.95844 153.826 4.92676 150.392 4.92676C146.959 4.92676 144.559 6.91092 144.559 9.7624C144.559 13.2674 147.256 14.2297 149.501 15.0495C150.986 15.5842 152.151 16.1307 152.151 17.1169C152.151 18.0198 151.414 18.6139 150.179 18.6139C148.242 18.6139 147.173 17.5802 146.46 16.7604V16.7367L143.905 18.9941C144.357 19.7188 146.115 22.0357 149.988 22.0357C153.862 22.0357 156.167 19.8971 156.167 16.8555C156.167 13.3505 153.482 12.4713 151.248 11.7109V11.7228Z" fill="#2B2F36"/>
<path d="M122.412 5.29492L117.648 17.4613L112.871 5.29492H109.141V21.6791H112.871V13.7662L115.747 21.6791H115.996H119.299H119.537L122.412 13.7662V21.6791H126.143V5.29492H122.412Z" fill="#2B2F36"/>
</g>
<defs>
<clipPath id="clip0_844_8172">
<rect width="156.166" height="24" fill="white" transform="translate(0 4)"/>
</clipPath>
</defs>
</svg>
